<svg id="Layer_1" data-name="Layer 1" xmlns="http://www.w3.org/2000/svg" viewBox="0 0 1031 284"><defs><style>.cls-1{fill:#fff;}</style></defs><title>name</title><path class="cls-1" d="M27,211.51c0-.58-.72-.86-2.16-.86a3.93,3.93,0,0,1-3.46-2.16,5.25,5.25,0,0,0-3.89-1.3,16.21,16.21,0,0,1-4.75.22,38.78,38.78,0,0,1-5.83-.87,22.09,22.09,0,0,1-5-1.73q-2.16-1.08-2.16-2.37c-.29-.58,0-1,.87-1.3a5.56,5.56,0,0,0,2.16-1.29A11.38,11.38,0,0,1,8,198.55a16.4,16.4,0,0,0,5.18-.86,10.59,10.59,0,0,1,5.19-.44c.28,0,.86-.72,1.73-2.16A175.17,175.17,0,0,1,26.6,169q4.3-13.17,9.07-25.27c.86-2,.65-3.24-.65-3.68s-1.23-1.65.22-3.67q2.58-3.45,4.1-4.1t3.67-5Q50.8,110,55.11,100.7t6.48-13.61c1.44-2.87,2.52-4.46,3.24-4.75a4.74,4.74,0,0,1,2.81,0c3.16.29,5.54,1.08,7.12,2.38s1.95,3.39,1.08,6.26a109.66,109.66,0,0,1-5.4,13.83q-3.24,6.91-3.24,8.64a.38.38,0,0,0-.43.43l.43-.43q.87,0,5.4-3t10.16-7.13q5.61-4.1,11-8.42T102.2,88q17.26-14.26,25.92-26.35T136.76,42q0-7.55-9.29-9.29T99.6,37Q75,45.2,59,58.37T34.37,84.5q-8.64,13-10.58,23.11t1.94,12.75q2.16,1.29-.86,2.16-4.76,1.29-7.78-2t-3.24-10.15q-.22-6.9,3.24-16.63T29.62,72.41A124.36,124.36,0,0,1,46.47,55.34a129.63,129.63,0,0,1,21.81-14.9,149.23,149.23,0,0,1,25.06-10.8,107.08,107.08,0,0,1,26.14-5.19,40.87,40.87,0,0,1,11,.87A27.69,27.69,0,0,1,143,30.93q5.4,4.34,6.7,12.53t-6.48,21.17q-6.06,10.8-11.45,16.42c-3.61,3.74-6.12,6.33-7.56,7.77a197.29,197.29,0,0,1-22,19Q90.53,116.47,80.81,123T64.4,133.1q-6.71,3.68-7.13,4.11l-.87.86q13.83,1.29,22.47,3a99.83,99.83,0,0,1,17.28,5.19q8.64,3.47,12.53,9.93a9,9,0,0,1,.86,8.43,24.06,24.06,0,0,1-5.83,8,47.42,47.42,0,0,1-9.51,6.91q-5.4,3-9.72,5.62a206.67,206.67,0,0,1-25.92,11.66,189,189,0,0,1-20.3,6.48c-.58,0-.94.14-1.08.43s-.51.44-1.08.44c-1.73,0-2.88.28-3.46.86a2.45,2.45,0,0,0-.86,1.73v1.73a1.12,1.12,0,0,1-.43,1.51,1.85,1.85,0,0,0-.87,1.51Zm67-57.89a40.89,40.89,0,0,0-12.1-5.4,96.33,96.33,0,0,0-11.23-2.16,51.85,51.85,0,0,0-9.07-.43,20.59,20.59,0,0,1-5.62-.22,2.56,2.56,0,0,0-3.45,1.3c-1.45,3.46-2.81,6.91-4.11,10.37s-2.52,6.77-3.67,9.93q-2.16,4.77-3.89,9.72c-1.15,3.32-2.31,6.56-3.45,9.72-.58,2-1,3.53-1.3,4.54s0,1.44.86,1.3a30.56,30.56,0,0,0,5-1.73q3.68-1.51,11.45-4.11l9.72-3.88q5.4-2.16,11-5t10.58-5.83a60.7,60.7,0,0,0,8.42-6.05q3.47-3.45,3.46-6.91A5.82,5.82,0,0,0,94,153.62Z"/><path class="cls-1" d="M192.48,130.29c1.15.87,1,3.1-.43,6.7a127.22,127.22,0,0,1-6.27,13,176.57,176.57,0,0,1-9.93,16q-5.83,8.43-11.45,16.2a39.91,39.91,0,0,1-18.79,14.26q-11,3.88-18.15-.65t-7.34-18.36q-.21-13.81,13.17-38.45a45.07,45.07,0,0,1,12.1-14.25q7.34-5.61,14-7.13t10.8,1.08q4.1,2.59,1.94,9.94a54.64,54.64,0,0,1-9.28,16.84q-6.7,8.66-15.34,10.8a3.37,3.37,0,0,0-3,3,76.71,76.71,0,0,0-1.95,7.56,78.1,78.1,0,0,0-1.51,9.72,29.84,29.84,0,0,0,.22,8.21c.43,2.31,1.51,3.45,3.24,3.45q11.66-5.61,22.68-22a304.28,304.28,0,0,0,20.52-35.86,8,8,0,0,1,2.37-.64A2.65,2.65,0,0,1,192.48,130.29Zm-44.93,19.44c0,.29.28.44.86.44.29,0,.94-.44,2-1.3a16.7,16.7,0,0,0,3-3.67,31.12,31.12,0,0,0,2.81-5.83,15.76,15.76,0,0,0,.86-7.35q-2.58,3.89-5,8.21A64.11,64.11,0,0,0,148,149.3Z"/><path class="cls-1" d="M221.42,81.48q11.22.43,21.17.86t19,1.3c2.31.29,3.24,1.29,2.81,3s-1.66,2.59-3.67,2.59q-2.16-.85-14.26-1.08T219.26,88q-9.07,23.33-16.42,45.57t-12.53,39.53q-5.17,17.28-10.36,38.45a10.48,10.48,0,0,1-2.38,4.54c-1,1-2.95,1.94-5.83,2.8-2,.58-3.31.94-3.89,1.08a5.81,5.81,0,0,1-3-.64c-1.15-.29-1.52-2.53-1.08-6.7A124.93,124.93,0,0,1,167,196q2.58-10.36,6.48-23.55t8.64-27.64q4.75-14.47,10.15-29.16t11-27.65q-8.21,0-14,.43a60.32,60.32,0,0,0-7.56.86,5.13,5.13,0,0,1-3.45-.43A7,7,0,0,1,175,86.45a2.59,2.59,0,0,1-.43-2.81q.64-1.31,5.4-1.3,6,0,11.88-.43t14.47-.43q7.33-17.72,14.47-28.73T232.65,41.3h3.89c.86,0,1.22.51,1.08,1.51a28.94,28.94,0,0,1-2,5.62q-1.72,4.11-5.18,11.88Q228.33,65.5,226,70.89C224.37,74.5,222.86,78,221.42,81.48Z"/><path class="cls-1" d="M289.67,118.63q5.61,3.89,5.62,12.74a84.81,84.81,0,0,1-2.6,19.66q-2.58,10.8-5.83,22a89,89,0,0,0-3.67,20.31q0,2.15-3.89,3.24c-2.59.71-4.61.79-6.05.21q-7.35-2.16-8-11.23a80.17,80.17,0,0,1,1.3-19.87q1.94-10.8,4.75-20.95t2.38-14.48q-.87-3.45-5.4-.64t-11,9.72a157.5,157.5,0,0,0-13.61,17.06,190.38,190.38,0,0,0-13.17,21.82q-3.9,7.35-11.24,7.34-4.31-.42-3.45-13.82t6-32.84a384.5,384.5,0,0,1,14-41.9,232.54,232.54,0,0,1,20.52-40.61,12.88,12.88,0,0,1,6.26-4.53,16,16,0,0,1,7.56-1.08,6.28,6.28,0,0,1,5,3q1.5,2.6-1.51,7.78a210.37,210.37,0,0,0-13.61,28.08q-5.83,14.69-9.72,27t-5.83,20.73c-1.3,5.62-1.95,8.58-1.95,8.86q9.49-10.8,16.2-17.71a76.87,76.87,0,0,1,11.88-10.37c3.46-2.3,6.62-3.38,9.51-3.24S286.21,116.33,289.67,118.63Z"/><path class="cls-1" d="M383,132.45c.58-1.43,1.73-1.87,3.46-1.29s2.16,1.88,1.29,3.89q-13,34.56-23.32,47.73t-17.07,12.31q-6.7-.87-9.07-12.31t1.08-25.7q2.16-9.5.86-9.07t-4.1,5a100.1,100.1,0,0,0-5.62,10.59,76.86,76.86,0,0,1-3.67,7.34q-4.76,8.65-10.58,12.75a14.58,14.58,0,0,1-13.18,1.94c-2-.57-3.31-2.81-3.89-6.7a44.19,44.19,0,0,1,.44-13.6,76.86,76.86,0,0,1,5-16.64,67.5,67.5,0,0,1,9.08-15.76,38.62,38.62,0,0,1,13-10.8q7.54-3.9,17.06-1.73,2.59.44,4.75-5.19c.29-.86,1.51-1.36,3.67-1.51a27,27,0,0,1,6.7.43,23.11,23.11,0,0,1,6,2c1.73.86,2.44,1.88,2.16,3q-9.08,21.62-12.31,34.35t-3.24,19c0,4.18.64,6.7,1.94,7.56s2.38.87,3.24,0q4.75-3.45,11-16.84T383,132.45Zm-68.25,40.61c.28-.57,1.58-2.87,3.88-6.91s4.82-8.42,7.56-13.18,5.26-9.14,7.56-13.17,3.46-6.48,3.46-7.35q-5.19.88-10.15,7.13a67,67,0,0,0-8.43,13.83,79.56,79.56,0,0,0-5,13.6q-1.51,6.06-.22,6.48A1.76,1.76,0,0,0,314.73,173.06Z"/><path class="cls-1" d="M441.3,108.69q6,3.47,4.1,13.18a158.14,158.14,0,0,1-6.26,21.82q-4.32,12.09-8.43,24.62t-2.37,21.17q.86,3.89-.87,5.83a5.52,5.52,0,0,1-4.32,1.94,8.6,8.6,0,0,1-5.18-1.94,9.58,9.58,0,0,1-3.46-5.83q-1.29-6.9,2.16-19t7.78-24.19q4.31-12.09,7.13-21.6t-.22-11.23a43,43,0,0,0-7.77,5.83,117.26,117.26,0,0,0-11,11.23,121,121,0,0,0-11.23,15.34,82,82,0,0,0-8.43,17.71,57.12,57.12,0,0,0-3.24,10.37,40.68,40.68,0,0,1-2.8,8.85,9.46,9.46,0,0,1-4.76,5c-2,.86-4.89.15-8.64-2.16q-3.45-2.16-3-8.86a84.71,84.71,0,0,1,3-16.2q2.59-9.5,6.48-20.73t7.78-22.47q2.59-7.33,6.26-8.2t11.45.86c1.73,0,2.66.8,2.81,2.38a20.1,20.1,0,0,1-.43,5.61,49.44,49.44,0,0,1-1.95,6.91c-.86,2.45-1.58,4.69-2.16,6.7q3.9-5.19,8.43-10.15a72.71,72.71,0,0,1,9.29-8.64,26.76,26.76,0,0,1,9.93-5A14.82,14.82,0,0,1,441.3,108.69Z"/><path class="cls-1" d="M529.42,113a4.63,4.63,0,0,1,.43,4.32,24.09,24.09,0,0,0-1.29,4.32q-12.1,44.07-21.39,72.8T490.54,240q-7.35,16.85-13.82,23.11t-13,5.4q-9.93-1.29-11.23-10.58t3.24-20.74A81,81,0,0,1,469.38,215q9.06-10.82,19.87-15.12.42,0,1.29-1.95a33.07,33.07,0,0,0,1.51-4.1c.44-1.45.87-2.81,1.3-4.11a12,12,0,0,0,.65-2.37q5.19-17.28,6.69-22.47t0-3.45a90.17,90.17,0,0,0-5.61,8,77.91,77.91,0,0,1-10.15,12.31A44,44,0,0,1,471.54,191q-7.37,3.24-15.12-1.51c-2.6-1.44-4.33-4.6-5.19-9.51a63.11,63.11,0,0,1-.43-16.63,107.89,107.89,0,0,1,3.67-19.22,76.11,76.11,0,0,1,6.91-17.07q4.11-7.12,9.29-10.36c3.46-2.16,7.05-2.09,10.8.21.86.58,1,1.66.43,3.24a9.14,9.14,0,0,1-1.73,3.24q-3.45,3.89-6.69,14.47T468.08,159a127.52,127.52,0,0,0-2.59,18.15q-.44,7.56,2.16,5.4,15.54-13,24-27.44t13.83-25.48q5.39-11,10.15-16.42T529.42,113ZM469.81,250.39c1.14-2.59,2.59-5.83,4.32-9.72s3.45-7.78,5.18-11.66,3.24-7.5,4.54-10.8,1.94-5.69,1.94-7.13q-5.19,1.72-9.5,7.56a60.35,60.35,0,0,0-7.35,13.17,127.9,127.9,0,0,0-5,14.26,42.42,42.42,0,0,0-2,10.58c0,2.45.57,3.46,1.73,3S466.92,256.15,469.81,250.39Z"/><path class="cls-1" d="M712.15,18a13.16,13.16,0,0,1,5.19.22,28.85,28.85,0,0,0,6,.65q9.95,0,19.66.65t17.28,1.72a71.28,71.28,0,0,1,11.45,2.38c2.59.86,3.31,1.59,2.16,2.16a11,11,0,0,1-6.48,2.16h-4.11a11,11,0,0,1-4.1-.86h-.43a19.64,19.64,0,0,1-5.83,0q-2.82-.43-6.27-.87-18.57-1.29-39.09-1.29t-38,1.51a209.28,209.28,0,0,0-29.38,4.32q-11.88,2.81-13.6,6.69-.87,2.6-3,1.73H622.3A4.22,4.22,0,0,1,618.41,37q-1.74-3.45,3.24-6.26a57.48,57.48,0,0,1,12.74-5q7.79-2.16,16.2-3.67t13.61-1.95q6-.42,14-.86t15.34-.65q7.33-.21,12.74-.43C709.92,18.05,711.86,18,712.15,18ZM626.62,226.2a9.59,9.59,0,0,1-3.68-1.95,3,3,0,0,1-1.08-1.94,53.89,53.89,0,0,0-.43-7.13,49.54,49.54,0,0,1-.21-8.42,113.21,113.21,0,0,1,1.51-13.18q1.29-8,4.32-21.38a451.07,451.07,0,0,1,16.41-52.49q9.94-26.13,19.44-46.44t16-32.18q6.48-11.88,5.18-9.72a18.42,18.42,0,0,1,6.48-7.13q3.88-2.37,9.07-.22c.87.29,1.23.8,1.08,1.51a37.54,37.54,0,0,1-2.8,6q-2.6,5-7.78,15.77T676.73,78q-9.08,22-16.63,44.5t-12.75,42.12q-5.18,19.67-7.77,34.77t-2.16,22.47c.28,1.15.14,1.87-.44,2.16a6.29,6.29,0,0,0-1.72,1.29,21.48,21.48,0,0,0-3.24.87A8.74,8.74,0,0,1,626.62,226.2Z"/><path class="cls-1" d="M748.44,118.63q5.61,3.89,5.62,12.74a84.81,84.81,0,0,1-2.6,19.66q-2.58,10.8-5.83,22A89,89,0,0,0,742,193.37q0,2.15-3.89,3.24c-2.59.71-4.61.79-6.05.21q-7.35-2.16-8-11.23a80.17,80.17,0,0,1,1.3-19.87q1.93-10.8,4.75-20.95t2.38-14.48q-.87-3.45-5.4-.64t-11,9.72a157.5,157.5,0,0,0-13.61,17.06,190.38,190.38,0,0,0-13.17,21.82q-3.9,7.35-11.24,7.34-4.31-.42-3.45-13.82t6-32.84a384.5,384.5,0,0,1,14-41.9,231.85,231.85,0,0,1,20.52-40.61,12.88,12.88,0,0,1,6.26-4.53A16,16,0,0,1,729,50.81a6.28,6.28,0,0,1,5,3q1.5,2.6-1.51,7.78a210.37,210.37,0,0,0-13.61,28.08q-5.83,14.69-9.72,27t-5.84,20.73c-1.29,5.62-1.94,8.58-1.94,8.86q9.49-10.8,16.2-17.71a76.87,76.87,0,0,1,11.88-10.37c3.46-2.3,6.62-3.38,9.51-3.24S745,116.33,748.44,118.63Z"/><path class="cls-1" d="M781.7,119.06a6,6,0,0,1,4.32-.86l4.32.86c3.74.87,5.19,3.32,4.32,7.35l-3.88,16.84q-1.31,5.63-2.81,10.8c-1,3.46-2,7.07-2.81,10.8q-1.29,5.19-1.94,7.56c-.44,1.59-.87,3-1.3,4.32a31,31,0,0,0-1.08,4.32c-.29,1.59-.86,4.11-1.73,7.56-.86,3.17-2.74,4.9-5.61,5.19h-4.76a12.66,12.66,0,0,1-4.75-.87c-2-.86-3.16-1.66-3.45-2.37a22.34,22.34,0,0,1-.87-4.54,47.37,47.37,0,0,1,.65-7.77c.43-2.6.94-5,1.51-7.35q.87-5.61,1.51-8.85t1.3-5.84c.43-1.72.94-3.67,1.51-5.83s1.3-5.11,2.16-8.85a72.36,72.36,0,0,1,3-8.86q1.73-4.09,3.45-8.86Q775.66,120.36,781.7,119.06Zm20.74-22a38.06,38.06,0,0,0-3.67,5.18q-1.53,2.6-3.24,5.19-2.17,2.59-6.48,2.59a3.36,3.36,0,0,1-3.46-1.08c-.86-1-1-1.94-.43-2.81.57-1.73,1.22-3.45,1.94-5.18s1.37-3.31,1.95-4.75c.57-1.15,1.73-1.73,3.45-1.73A19.7,19.7,0,0,1,802,96.17,1.29,1.29,0,0,1,802.44,97Z"/><path class="cls-1" d="M866.81,130.29c1.14.87,1,3.1-.44,6.7a126.88,126.88,0,0,1-6.26,13,174.58,174.58,0,0,1-9.94,16c-3.88,5.62-7.71,11-11.44,16.2a39.89,39.89,0,0,1-18.8,14.26q-11,3.88-18.14-.65t-7.34-18.36q-.23-13.81,13.17-38.45a45,45,0,0,1,12.1-14.25q7.34-5.61,14-7.13t10.8,1.08q4.1,2.59,1.94,9.94a54.9,54.9,0,0,1-9.29,16.84q-6.69,8.66-15.33,10.8a3.39,3.39,0,0,0-3,3,77.24,77.24,0,0,0-1.94,7.56,78.1,78.1,0,0,0-1.51,9.72,30.27,30.27,0,0,0,.21,8.21c.43,2.31,1.52,3.45,3.24,3.45q11.67-5.61,22.68-22a302.88,302.88,0,0,0,20.52-35.86,8.14,8.14,0,0,1,2.38-.64A2.66,2.66,0,0,1,866.81,130.29Zm-44.93,19.44c0,.29.28.44.86.44.29,0,.93-.44,2-1.3a16.7,16.7,0,0,0,3-3.67,32.42,32.42,0,0,0,2.81-5.83,15.76,15.76,0,0,0,.86-7.35q-2.6,3.89-5,8.21a65.21,65.21,0,0,0-4.1,9.07Z"/><path class="cls-1" d="M910.43,41.3a11.26,11.26,0,0,1,3-1.29,9.07,9.07,0,0,1,5.18-.22c1.73.43,3.09,1.73,4.11,3.89s1.22,5.83.64,11a123,123,0,0,1-8,30.68,159.46,159.46,0,0,1-12.53,24.84,98.71,98.71,0,0,1-13.17,17.06q-6.48,6.48-10.37,6.91-2.6,7.35-5,16.2t-4.1,17.07a103.6,103.6,0,0,0-2.16,15.33q-.44,7.13,1.29,11.45c1.44,1.15,2.09,2.16,2,3s-.87,1.44-2.16,1.73a12,12,0,0,1-5-.21,13,13,0,0,1-5.62-2.81q-4.3-3.89-4.53-16.63a155.31,155.31,0,0,1,2.81-29.6,323.61,323.61,0,0,1,8.64-35.64,287.86,287.86,0,0,1,12.74-34.77A123.58,123.58,0,0,1,893.8,52.75Q902.23,42.18,910.43,41.3Zm-28.94,86a52.26,52.26,0,0,0,9.5-12.53q4.75-8.2,9.08-17.28t7.77-18.57q3.45-9.51,5.62-16.42a63.68,63.68,0,0,0,2.59-10.58q.42-3.68-1.3-2a46.84,46.84,0,0,0-7.12,9.94q-3.68,6.48-7.35,14.47t-7.34,16.42q-3.68,8.42-6.27,16.2c-.58,2.88-1.37,6-2.37,9.28S882.35,123.24,881.49,127.27Z"/><path class="cls-1" d="M961,130.29c1.14.87,1,3.1-.44,6.7a126.88,126.88,0,0,1-6.26,13,174.58,174.58,0,0,1-9.94,16q-5.82,8.43-11.44,16.2a39.89,39.89,0,0,1-18.8,14.26q-11,3.88-18.14-.65t-7.34-18.36q-.23-13.81,13.17-38.45a45,45,0,0,1,12.1-14.25q7.33-5.61,14-7.13t10.8,1.08q4.1,2.59,1.94,9.94a54.69,54.69,0,0,1-9.29,16.84q-6.69,8.66-15.33,10.8a3.39,3.39,0,0,0-3,3,77.24,77.24,0,0,0-1.94,7.56,78.1,78.1,0,0,0-1.51,9.72,30.27,30.27,0,0,0,.21,8.21c.44,2.31,1.52,3.45,3.24,3.45q11.67-5.61,22.68-22a301.49,301.49,0,0,0,20.52-35.86,8.14,8.14,0,0,1,2.38-.64A2.65,2.65,0,0,1,961,130.29Zm-44.93,19.44c0,.29.28.44.86.44.29,0,.93-.44,2-1.3a16.7,16.7,0,0,0,3-3.67,31.76,31.76,0,0,0,2.81-5.83,15.76,15.76,0,0,0,.86-7.35q-2.59,3.89-5,8.21a65.21,65.21,0,0,0-4.1,9.07Z"/><path class="cls-1" d="M1013.68,108.69q6,3.47,4.1,13.18a159.56,159.56,0,0,1-6.26,21.82q-4.34,12.09-8.43,24.62t-2.37,21.17q.85,3.89-.87,5.83a5.52,5.52,0,0,1-4.32,1.94,8.58,8.58,0,0,1-5.18-1.94,9.58,9.58,0,0,1-3.46-5.83q-1.29-6.9,2.16-19t7.78-24.19q4.3-12.09,7.13-21.6t-.22-11.23a43.27,43.27,0,0,0-7.78,5.83,118.46,118.46,0,0,0-11,11.23,120,120,0,0,0-11.23,15.34,82,82,0,0,0-8.43,17.71,57.12,57.12,0,0,0-3.24,10.37,40.12,40.12,0,0,1-2.81,8.85,9.45,9.45,0,0,1-4.75,5c-2,.86-4.89.15-8.64-2.16q-3.45-2.16-3-8.86a83.94,83.94,0,0,1,3-16.2q2.6-9.5,6.48-20.73t7.78-22.47q2.6-7.33,6.26-8.2t11.45.86c1.73,0,2.66.8,2.81,2.38a20.1,20.1,0,0,1-.43,5.61,50.85,50.85,0,0,1-2,6.91c-.86,2.45-1.58,4.69-2.16,6.7q3.88-5.19,8.43-10.15a73.32,73.32,0,0,1,9.28-8.64,26.8,26.8,0,0,1,9.94-5A14.82,14.82,0,0,1,1013.68,108.69Z"/></svg>