<?xml version="1.0" encoding="utf-8"?>
<!-- Generator: Adobe Illustrator 22.1.0, SVG Export Plug-In . SVG Version: 6.00 Build 0)  -->
<svg version="1.1" id="Layer_1" xmlns="http://www.w3.org/2000/svg" xmlns:xlink="http://www.w3.org/1999/xlink" x="0px" y="0px"
	 viewBox="0 0 1031 284" style="enable-background:new 0 0 1031 284;" xml:space="preserve">
<style type="text/css">
	.st0{fill:#FFFFFF;}
</style>
<title>name</title>
<path class="st0" d="M27,211.5c0-0.6-0.7-0.9-2.2-0.9c-1.5,0-2.8-0.9-3.5-2.2c-1.1-0.9-2.5-1.4-3.9-1.3c-1.6,0.3-3.2,0.4-4.8,0.2
	c-2-0.1-3.9-0.4-5.8-0.9c-1.7-0.4-3.4-1-5-1.7c-1.4-0.7-2.2-1.5-2.2-2.4c-0.3-0.6,0-1,0.9-1.3c0.8-0.3,1.5-0.7,2.2-1.3
	c1.6-0.8,3.4-1.3,5.2-1.3c1.8,0,3.5-0.3,5.2-0.9c1.7-0.6,3.5-0.7,5.2-0.4c0.3,0,0.9-0.7,1.7-2.2c1.5-8.9,3.7-17.6,6.5-26.1
	c2.9-8.8,5.9-17.2,9.1-25.3c0.9-2,0.7-3.2-0.7-3.7s-1.2-1.6,0.2-3.7c1.7-2.3,3.1-3.7,4.1-4.1s2.2-2.1,3.7-5
	c5.2-11.5,9.2-20.4,12.1-26.6c2.9-6.2,5-10.7,6.5-13.6c1.4-2.9,2.5-4.5,3.2-4.8c0.9-0.3,1.9-0.3,2.8,0c3.2,0.3,5.5,1.1,7.1,2.4
	s1.9,3.4,1.1,6.3c-1.5,4.7-3.3,9.3-5.4,13.8c-2.2,4.6-3.2,7.5-3.2,8.6c-0.2,0-0.4,0.1-0.4,0.3c0,0,0,0.1,0,0.1l0.4-0.4
	c0.6,0,2.4-1,5.4-3c3-2,6.4-4.4,10.2-7.1c3.7-2.7,7.4-5.5,11-8.4c3.6-2.9,6.4-5.2,8.4-6.9c11.5-9.5,20.1-18.3,25.9-26.3
	c5.8-8.1,8.7-14.6,8.6-19.7c0-5-3.1-8.1-9.3-9.3C121.3,31.5,112,33,99.6,37C83.2,42.5,69.7,49.6,59,58.4S40.1,75.9,34.4,84.5
	c-5.8,8.7-9.3,16.4-10.6,23.1c-1.3,6.7-0.6,11,1.9,12.8c1.4,0.9,1.2,1.6-0.9,2.2c-3.2,0.9-5.8,0.2-7.8-2s-3.1-5.6-3.2-10.2
	c-0.1-4.6,0.9-10.1,3.2-16.6c2.3-6.5,6.5-13.6,12.5-21.3c5.1-6.2,10.7-11.9,16.9-17.1c6.7-5.7,14.1-10.7,21.8-14.9
	c8-4.4,16.4-8,25.1-10.8c8.5-2.8,17.2-4.6,26.1-5.2c3.7-0.2,7.4,0.1,11,0.9c4.6,0.8,8.9,2.7,12.5,5.6c3.6,2.9,5.8,7.1,6.7,12.5
	s-1.3,12.5-6.5,21.2c-4,7.2-7.9,12.7-11.4,16.4c-3.6,3.7-6.1,6.3-7.6,7.8c-6.9,6.9-14.2,13.2-22,19c-7.8,5.8-14.9,10.8-21.4,15.2
	s-12,7.7-16.4,10.1c-4.5,2.5-6.8,3.8-7.1,4.1l-0.9,0.9c9.2,0.9,16.7,1.9,22.5,3c5.9,1.2,11.7,2.9,17.3,5.2c5.8,2.3,9.9,5.6,12.5,9.9
	c1.7,2.5,2,5.7,0.9,8.4c-1.4,3-3.4,5.8-5.8,8c-2.9,2.7-6.1,5-9.5,6.9c-3.6,2-6.8,3.9-9.7,5.6c-8.4,4.5-17,8.4-25.9,11.7
	c-6.6,2.5-13.4,4.7-20.3,6.5c-0.6,0-0.9,0.1-1.1,0.4s-0.5,0.4-1.1,0.4c-1.7,0-2.9,0.3-3.5,0.9c-0.5,0.4-0.8,1.1-0.9,1.7v1.7
	c0.3,0.5,0.1,1.2-0.4,1.5c-0.5,0.3-0.9,0.9-0.9,1.5L27,211.5z M94,153.6c-3.7-2.4-7.8-4.3-12.1-5.4c-3.7-0.9-7.4-1.7-11.2-2.2
	c-3-0.4-6-0.6-9.1-0.4c-1.9,0.2-3.8,0.1-5.6-0.2c-1.3-0.6-2.8-0.1-3.4,1.2c0,0,0,0.1,0,0.1c-1.5,3.5-2.8,6.9-4.1,10.4
	s-2.5,6.8-3.7,9.9c-1.4,3.2-2.7,6.4-3.9,9.7c-1.2,3.3-2.3,6.6-3.5,9.7c-0.6,2-1,3.5-1.3,4.5s0,1.4,0.9,1.3c1.7-0.4,3.4-1,5-1.7
	c2.5-1,6.3-2.4,11.5-4.1l9.7-3.9c3.6-1.4,7.3-3.1,11-5s7.3-3.8,10.6-5.8c3-1.8,5.8-3.8,8.4-6.1c2.3-2.3,3.5-4.6,3.5-6.9
	C96.7,156.7,95.7,154.8,94,153.6z"/>
<path class="st0" d="M192.5,130.3c1.1,0.9,1,3.1-0.4,6.7c-1.8,4.4-3.9,8.8-6.3,13c-3,5.5-6.3,10.8-9.9,16c-3.9,5.6-7.7,11-11.4,16.2
	c-4.7,6.5-11.2,11.5-18.8,14.3c-7.3,2.6-13.4,2.4-18.2-0.6c-4.8-3-7.2-9.1-7.3-18.4c-0.1-9.2,4.3-22,13.2-38.4
	c3-5.5,7.1-10.4,12.1-14.3c4.9-3.7,9.6-6.1,14-7.1c4.4-1,8-0.7,10.8,1.1c2.7,1.7,3.4,5,1.9,9.9c-2.1,6.1-5.2,11.8-9.3,16.8
	c-4.5,5.8-9.6,9.4-15.3,10.8c-1.6,0.2-2.8,1.4-3,3c-0.8,2.5-1.4,5-1.9,7.6c-0.7,3.2-1.2,6.5-1.5,9.7c-0.3,2.7-0.2,5.5,0.2,8.2
	c0.4,2.3,1.5,3.4,3.2,3.4c7.8-3.7,15.3-11.1,22.7-22c7.6-11.5,14.5-23.5,20.5-35.9c0.8-0.3,1.6-0.5,2.4-0.6
	C190.9,129.5,191.8,129.7,192.5,130.3z M147.5,149.7c0,0.3,0.3,0.4,0.9,0.4c0.3,0,0.9-0.4,2-1.3c1.2-1.1,2.2-2.3,3-3.7
	c1.1-1.8,2.1-3.8,2.8-5.8c0.9-2.3,1.2-4.9,0.9-7.4c-1.7,2.6-3.4,5.3-5,8.2c-1.6,2.9-3,5.9-4.1,9.1L147.5,149.7z"/>
<path class="st0" d="M221.4,81.5c7.5,0.3,14.5,0.6,21.2,0.9s13,0.7,19,1.3c2.3,0.3,3.2,1.3,2.8,3s-1.7,2.6-3.7,2.6
	c-1.4-0.6-6.2-0.9-14.3-1.1c-8.1-0.2-17.1-0.2-27.2-0.2c-6,15.6-11.5,30.7-16.4,45.6c-4.9,14.8-9.1,28-12.5,39.5
	c-3.4,11.5-6.9,24.3-10.4,38.4c-0.4,1.7-1.2,3.2-2.4,4.5c-1,1-2.9,1.9-5.8,2.8c-2,0.6-3.3,0.9-3.9,1.1c-1,0.1-2.1-0.2-3-0.6
	c-1.1-0.3-1.5-2.5-1.1-6.7c0.7-5.6,1.8-11.2,3.2-16.6c1.7-6.9,3.9-14.8,6.5-23.6c2.6-8.8,5.5-18,8.6-27.6
	c3.2-9.6,6.6-19.4,10.1-29.2c3.6-9.8,7.3-19,11-27.7c-5.5,0-10.1,0.1-14,0.4c-2.5,0.1-5.1,0.4-7.6,0.9c-1.2,0.3-2.4,0.1-3.4-0.4
	c-1.3-0.5-2.4-1.3-3.3-2.4c-0.7-0.8-0.9-1.9-0.4-2.8c0.4-0.9,2.2-1.3,5.4-1.3c4,0,8-0.1,11.9-0.4c3.9-0.3,8.7-0.4,14.5-0.4
	c4.9-11.8,9.7-21.4,14.5-28.7s8.7-11.2,11.9-11.4h3.9c0.9,0,1.2,0.5,1.1,1.5c-0.5,1.9-1.1,3.8-2,5.6c-1.1,2.7-2.9,6.7-5.2,11.9
	c-1.4,3.5-2.9,7-4.4,10.6C224.4,74.5,222.9,78,221.4,81.5z"/>
<path class="st0" d="M289.7,118.6c3.7,2.6,5.6,6.8,5.6,12.7c-0.1,6.6-1,13.2-2.6,19.7c-1.7,7.2-3.7,14.5-5.8,22
	c-2,6.6-3.2,13.4-3.7,20.3c0,1.4-1.3,2.5-3.9,3.2c-2.6,0.7-4.6,0.8-6,0.2c-4.9-1.4-7.6-5.2-8-11.2c-0.4-6.7,0-13.3,1.3-19.9
	c1.3-7.2,2.9-14.2,4.8-20.9s2.7-11.6,2.4-14.5c-0.6-2.3-2.4-2.5-5.4-0.6c-3,1.9-6.7,5.1-11,9.7c-4.9,5.4-9.5,11.1-13.6,17.1
	c-4.9,7-9.3,14.3-13.2,21.8c-2.6,4.9-6.3,7.3-11.2,7.3c-2.9-0.3-4-4.9-3.4-13.8s2.6-19.9,6-32.8c3.9-14.2,8.5-28.2,14-41.9
	c5.5-14.2,12.4-27.8,20.5-40.6c1.6-2.1,3.8-3.7,6.3-4.5c2.4-1,5-1.3,7.6-1.1c2.1,0.1,3.9,1.2,5,3c1,1.7,0.5,4.3-1.5,7.8
	c-5.2,9-9.8,18.4-13.6,28.1c-3.9,9.8-7.1,18.8-9.7,27s-4.5,15.1-5.8,20.7c-1.3,5.6-1.9,8.6-1.9,8.9c6.3-7.2,11.7-13.1,16.2-17.7
	c3.6-3.9,7.6-7.3,11.9-10.4c3.5-2.3,6.6-3.4,9.5-3.2S286.2,116.3,289.7,118.6z"/>
<path class="st0" d="M383,132.4c0.6-1.4,1.7-1.9,3.5-1.3s2.2,1.9,1.3,3.9c-8.7,23-16.4,38.9-23.3,47.7c-6.9,8.8-12.6,12.9-17.1,12.3
	c-4.5-0.6-7.5-4.7-9.1-12.3c-1.6-7.6-1.2-16.2,1.1-25.7c1.4-6.3,1.7-9.4,0.9-9.1c-0.9,0.3-2.2,2-4.1,5c-2.1,3.4-4,7-5.6,10.6
	c-1.1,2.5-2.3,5-3.7,7.3c-3.2,5.8-6.7,10-10.6,12.8c-3.8,2.7-8.7,3.5-13.2,1.9c-2-0.6-3.3-2.8-3.9-6.7c-0.6-4.5-0.4-9.1,0.4-13.6
	c1-5.7,2.7-11.3,5-16.6c2.3-5.6,5.4-10.9,9.1-15.8c3.5-4.5,7.9-8.2,13-10.8c5-2.6,10.7-3.2,17.1-1.7c1.7,0.3,3.3-1.4,4.8-5.2
	c0.3-0.9,1.5-1.4,3.7-1.5c2.2-0.1,4.5,0,6.7,0.4c2.1,0.4,4.1,1.1,6,2c1.7,0.9,2.4,1.9,2.2,3c-6.1,14.4-10.2,25.9-12.3,34.3
	c-2.2,8.5-3.2,14.8-3.2,19c0,4.2,0.6,6.7,1.9,7.6s2.4,0.9,3.2,0c3.2-2.3,6.8-7.9,11-16.8C371.8,154.3,377,144,383,132.4z
	 M314.8,173.1c0.3-0.6,1.6-2.9,3.9-6.9s4.8-8.4,7.6-13.2s5.3-9.1,7.6-13.2s3.5-6.5,3.5-7.4c-3.5,0.6-6.8,3-10.1,7.1
	c-3.4,4.3-6.2,8.9-8.4,13.8c-2.1,4.4-3.8,8.9-5,13.6c-1,4-1.1,6.2-0.2,6.5C313.9,173.5,314.4,173.4,314.8,173.1L314.8,173.1z"/>
<path class="st0" d="M441.3,108.7c4,2.3,5.4,6.7,4.1,13.2c-1.6,7.4-3.7,14.7-6.3,21.8c-2.9,8.1-5.7,16.3-8.4,24.6
	s-3.5,15.4-2.4,21.2c0.6,2.6,0.3,4.5-0.9,5.8c-1.1,1.3-2.7,2-4.3,1.9c-1.9-0.1-3.7-0.7-5.2-1.9c-1.8-1.5-3.1-3.5-3.5-5.8
	c-0.9-4.6-0.1-10.9,2.2-19c2.3-8.1,4.9-16.1,7.8-24.2c2.9-8.1,5.3-15.3,7.1-21.6c1.9-6.3,1.8-10.1-0.2-11.2
	c-2.8,1.6-5.4,3.6-7.8,5.8c-3.9,3.5-7.6,7.2-11,11.2c-4.1,4.8-7.9,9.9-11.2,15.3c-3.5,5.5-6.3,11.5-8.4,17.7
	c-1.4,3.3-2.5,6.8-3.2,10.4c-0.6,3-1.5,6-2.8,8.9c-0.9,2.2-2.6,4-4.8,5c-2,0.9-4.9,0.1-8.6-2.2c-2.3-1.4-3.3-4.4-3-8.9
	c0.5-5.5,1.5-10.9,3-16.2c1.7-6.3,3.9-13.2,6.5-20.7c2.6-7.5,5.2-15,7.8-22.5c1.7-4.9,3.8-7.6,6.3-8.2c2.4-0.6,6.3-0.3,11.5,0.9
	c1.7,0,2.7,0.8,2.8,2.4c0.1,1.9,0,3.8-0.4,5.6c-0.5,2.3-1.1,4.7-2,6.9c-0.9,2.4-1.6,4.7-2.2,6.7c2.6-3.5,5.4-6.8,8.4-10.2
	c2.8-3.1,5.9-6,9.3-8.6c2.9-2.3,6.3-4,9.9-5C434.7,107,438.2,107.3,441.3,108.7z"/>
<path class="st0" d="M529.4,113c0.9,1.3,1,2.9,0.4,4.3c-0.6,1.4-1,2.8-1.3,4.3c-8.1,29.4-15.2,53.6-21.4,72.8
	c-6.2,19.2-11.7,34.3-16.6,45.6c-4.9,11.2-9.5,18.9-13.8,23.1c-4.3,4.2-8.6,6-13,5.4c-6.6-0.9-10.4-4.4-11.2-10.6
	c-0.9-6.2,0.2-13.1,3.2-20.7c3.3-8.1,7.9-15.6,13.7-22.2c6-7.2,12.7-12.3,19.9-15.1c0.3,0,0.7-0.7,1.3-1.9c0.6-1.3,1.1-2.7,1.5-4.1
	c0.4-1.4,0.9-2.8,1.3-4.1c0.3-0.8,0.5-1.6,0.6-2.4c3.5-11.5,5.7-19,6.7-22.5c1-3.5,1-4.6,0-3.4c-2,2.6-3.9,5.2-5.6,8
	c-3,4.4-6.4,8.6-10.1,12.3c-3.8,3.9-8.4,7-13.4,9.3c-4.9,2.2-10,1.7-15.1-1.5c-2.6-1.4-4.3-4.6-5.2-9.5c-0.9-5.5-1-11.1-0.4-16.6
	c0.6-6.5,1.9-12.9,3.7-19.2c1.6-5.9,3.9-11.7,6.9-17.1c2.7-4.7,5.8-8.2,9.3-10.4c3.5-2.2,7-2.1,10.8,0.2c0.9,0.6,1,1.7,0.4,3.2
	c-0.4,1.2-0.9,2.3-1.7,3.2c-2.3,2.6-4.5,7.4-6.7,14.5c-2.2,7.1-4,14.1-5.4,21.1c-1.3,6-2.2,12-2.6,18.1c-0.3,5,0.4,6.8,2.2,5.4
	c10.4-8.7,18.4-17.8,24-27.4c5.6-9.6,10.3-18.1,13.8-25.5c3.6-7.3,7-12.8,10.2-16.4S523.4,109.5,529.4,113z M469.8,250.4
	c1.1-2.6,2.6-5.8,4.3-9.7s3.5-7.8,5.2-11.7s3.2-7.5,4.5-10.8s1.9-5.7,1.9-7.1c-3.5,1.1-6.6,3.7-9.5,7.6c-3,4.1-5.5,8.5-7.4,13.2
	c-1.9,4.7-3.6,9.4-5,14.3c-1.1,3.4-1.8,7-2,10.6c0,2.5,0.6,3.5,1.7,3S466.9,256.1,469.8,250.4z"/>
<path class="st0" d="M712.2,18c1.7-0.3,3.5-0.2,5.2,0.2c2,0.4,4,0.6,6,0.6c6.6,0,13.2,0.2,19.7,0.6c6.5,0.4,12.2,1,17.3,1.7
	c3.9,0.5,7.7,1.3,11.5,2.4c2.6,0.9,3.3,1.6,2.2,2.2c-1.9,1.4-4.1,2.1-6.5,2.2h-4.1c-1.4,0-2.8-0.3-4.1-0.9h-0.4
	c-1.9,0.3-3.9,0.3-5.8,0c-1.9-0.3-4-0.6-6.3-0.9c-12.4-0.9-25.4-1.3-39.1-1.3c-13.7,0-26.3,0.5-38,1.5c-9.9,0.7-19.7,2.2-29.4,4.3
	c-7.9,1.9-12.5,4.1-13.6,6.7c-0.6,1.7-1.6,2.3-3,1.7h-1.3c-1.6,0.1-3.1-0.8-3.9-2.2c-1.2-2.3-0.1-4.4,3.2-6.3c4-2.2,8.3-3.8,12.7-5
	c5.2-1.4,10.6-2.7,16.2-3.7s10.1-1.7,13.6-2c4-0.3,8.7-0.6,14-0.9s10.4-0.5,15.3-0.6c4.9-0.1,9.1-0.3,12.7-0.4
	C709.9,18,711.9,18,712.2,18z M626.6,226.2c-1.4-0.4-2.6-1-3.7-1.9c-0.6-0.5-1-1.2-1.1-1.9c0-2.4-0.1-4.8-0.4-7.1
	c-0.3-2.8-0.4-5.6-0.2-8.4c0.2-4.4,0.7-8.8,1.5-13.2c0.9-5.3,2.3-12.5,4.3-21.4c4.4-17.8,9.9-35.3,16.4-52.5
	c6.6-17.4,13.1-32.9,19.4-46.4c6.3-13.5,11.7-24.3,16-32.2c4.3-7.9,6-11.2,5.2-9.7c1.5-2.9,3.7-5.4,6.5-7.1c2.6-1.6,5.6-1.7,9.1-0.2
	c0.9,0.3,1.2,0.8,1.1,1.5c-0.8,2.1-1.7,4.1-2.8,6c-1.7,3.3-4.3,8.6-7.8,15.8s-7.9,17.4-13.4,30.7c-6.1,14.7-11.6,29.5-16.6,44.5
	s-9.3,29-12.8,42.1c-3.5,13.1-6,24.7-7.8,34.8c-1.7,10.1-2.4,17.6-2.2,22.5c0.3,1.1,0.1,1.9-0.4,2.2c-0.6,0.3-1.2,0.8-1.7,1.3
	c-1.1,0.2-2.2,0.5-3.2,0.9C630.3,226.8,628.4,226.8,626.6,226.2z"/>
<path class="st0" d="M748.4,118.6c3.7,2.6,5.6,6.8,5.6,12.7c-0.1,6.6-1,13.2-2.6,19.7c-1.7,7.2-3.7,14.5-5.8,22
	c-2,6.6-3.2,13.4-3.6,20.3c0,1.4-1.3,2.5-3.9,3.2c-2.6,0.7-4.6,0.8-6,0.2c-4.9-1.4-7.6-5.2-8-11.2c-0.4-6.7,0-13.3,1.3-19.9
	c1.3-7.2,2.9-14.2,4.8-20.9s2.7-11.6,2.4-14.5c-0.6-2.3-2.4-2.5-5.4-0.6c-3,1.9-6.7,5.1-11,9.7c-4.9,5.4-9.5,11.1-13.6,17.1
	c-4.9,7-9.3,14.3-13.2,21.8c-2.6,4.9-6.3,7.3-11.2,7.3c-2.9-0.3-4-4.9-3.5-13.8c0.6-8.9,2.6-19.9,6-32.8c3.9-14.2,8.5-28.2,14-41.9
	c5.5-14.2,12.4-27.8,20.5-40.6c1.6-2.1,3.8-3.7,6.3-4.5c2.4-1,5-1.3,7.6-1.1c2.1,0.1,3.9,1.2,5,3c1,1.7,0.5,4.3-1.5,7.8
	c-5.2,9-9.8,18.4-13.6,28.1c-3.9,9.8-7.1,18.8-9.7,27c-2.6,8.2-4.5,15.1-5.8,20.7c-1.3,5.6-1.9,8.6-1.9,8.9
	c6.3-7.2,11.7-13.1,16.2-17.7c3.6-3.9,7.6-7.3,11.9-10.4c3.5-2.3,6.6-3.4,9.5-3.2S745,116.3,748.4,118.6z"/>
<path class="st0" d="M781.7,119.1c1.3-0.8,2.8-1.1,4.3-0.9l4.3,0.9c3.7,0.9,5.2,3.3,4.3,7.3l-3.9,16.8c-0.9,3.8-1.8,7.4-2.8,10.8
	c-1,3.5-2,7.1-2.8,10.8c-0.9,3.5-1.5,6-1.9,7.6c-0.4,1.6-0.9,3-1.3,4.3c-0.5,1.4-0.8,2.9-1.1,4.3c-0.3,1.6-0.9,4.1-1.7,7.6
	c-0.9,3.2-2.7,4.9-5.6,5.2h-4.8c-1.6,0-3.2-0.3-4.8-0.9c-2-0.9-3.2-1.7-3.5-2.4c-0.4-1.5-0.7-3-0.9-4.5c0-2.6,0.2-5.2,0.7-7.8
	c0.4-2.6,0.9-5,1.5-7.4c0.6-3.7,1.1-6.7,1.5-8.9s0.9-4.1,1.3-5.8c0.4-1.7,0.9-3.7,1.5-5.8s1.3-5.1,2.2-8.9c0.8-3,1.8-6,3-8.9
	c1.2-2.7,2.3-5.7,3.5-8.9C775.4,121.5,777.7,119.9,781.7,119.1z M802.4,97.1c-1.4,1.6-2.6,3.4-3.7,5.2c-1,1.7-2.1,3.5-3.2,5.2
	c-1.4,1.7-3.6,2.6-6.5,2.6c-1.3,0.3-2.6-0.1-3.5-1.1c-0.9-1-1-1.9-0.4-2.8c0.6-1.7,1.2-3.4,1.9-5.2s1.4-3.3,2-4.8
	c0.6-1.2,1.7-1.7,3.5-1.7c3.3-0.2,6.5,0.4,9.5,1.7C802.2,96.4,802.4,96.7,802.4,97.1L802.4,97.1z"/>
<path class="st0" d="M866.8,130.3c1.1,0.9,1,3.1-0.4,6.7c-1.8,4.4-3.9,8.8-6.3,13c-3,5.5-6.3,10.8-9.9,16c-3.9,5.6-7.7,11-11.4,16.2
	c-4.7,6.5-11.2,11.5-18.8,14.3c-7.3,2.6-13.4,2.4-18.1-0.6s-7.2-9.1-7.3-18.4c-0.2-9.2,4.2-22,13.2-38.4c3-5.5,7.1-10.4,12.1-14.3
	c4.9-3.7,9.6-6.1,14-7.1c4.4-1,8-0.7,10.8,1.1c2.7,1.7,3.4,5,1.9,9.9c-2.1,6.1-5.2,11.8-9.3,16.8c-4.5,5.8-9.6,9.4-15.3,10.8
	c-1.6,0.2-2.8,1.4-3,3c-0.8,2.5-1.4,5-1.9,7.6c-0.7,3.2-1.2,6.5-1.5,9.7c-0.3,2.7-0.2,5.5,0.2,8.2c0.4,2.3,1.5,3.4,3.2,3.4
	c7.8-3.7,15.3-11.1,22.7-22c7.6-11.5,14.5-23.5,20.5-35.9c0.8-0.3,1.6-0.5,2.4-0.6C865.3,129.5,866.2,129.7,866.8,130.3z
	 M821.9,149.7c0,0.3,0.3,0.4,0.9,0.4c0.3,0,0.9-0.4,2-1.3c1.2-1.1,2.2-2.3,3-3.7c1.1-1.8,2.1-3.8,2.8-5.8c0.9-2.3,1.2-4.9,0.9-7.4
	c-1.7,2.6-3.4,5.3-5,8.2c-1.6,2.9-3,5.9-4.1,9.1L821.9,149.7z"/>
<path class="st0" d="M910.4,41.3c0.9-0.6,1.9-1,3-1.3c1.7-0.6,3.5-0.7,5.2-0.2c1.7,0.4,3.1,1.7,4.1,3.9s1.2,5.8,0.6,11
	c-1.3,10.5-4,20.8-8,30.7c-3.4,8.6-7.6,16.9-12.5,24.8c-3.8,6.2-8.2,11.9-13.2,17.1c-4.3,4.3-7.8,6.6-10.4,6.9
	c-1.7,4.9-3.4,10.3-5,16.2c-1.6,5.9-3,11.6-4.1,17.1c-1.1,5-1.8,10.2-2.2,15.3c-0.3,4.8,0.1,8.6,1.3,11.4c1.4,1.1,2.1,2.2,2,3
	s-0.9,1.4-2.2,1.7c-1.7,0.3-3.4,0.2-5-0.2c-2.1-0.5-4-1.4-5.6-2.8c-2.9-2.6-4.4-8.1-4.5-16.6c0-9.9,0.9-19.8,2.8-29.6
	c2.2-12,5.1-23.9,8.6-35.6c3.5-11.9,7.8-23.5,12.7-34.8c4.1-9.5,9.3-18.4,15.6-26.5C899.4,45.7,905,41.9,910.4,41.3z M881.5,127.3
	c3.8-3.7,7-7.9,9.5-12.5c3.2-5.5,6.2-11.2,9.1-17.3c2.9-6.1,5.5-12.2,7.8-18.6c2.3-6.3,4.2-11.8,5.6-16.4c1.2-3.4,2-7,2.6-10.6
	c0.3-2.5-0.2-3.1-1.3-2c-2.8,3-5.2,6.3-7.1,9.9c-2.5,4.3-4.9,9.1-7.3,14.5s-4.9,10.8-7.3,16.4c-2.5,5.6-4.5,11-6.3,16.2
	c-0.6,2.9-1.4,6-2.4,9.3S882.3,123.2,881.5,127.3L881.5,127.3z"/>
<path class="st0" d="M961,130.3c1.1,0.9,1,3.1-0.4,6.7c-1.8,4.4-3.9,8.8-6.3,13c-3,5.5-6.3,10.8-9.9,16c-3.9,5.6-7.7,11-11.4,16.2
	c-4.7,6.5-11.2,11.5-18.8,14.3c-7.3,2.6-13.4,2.4-18.1-0.6s-7.2-9.1-7.3-18.4c-0.2-9.2,4.2-22,13.2-38.4c3-5.5,7.1-10.4,12.1-14.3
	c4.9-3.7,9.6-6.1,14-7.1c4.4-1,8-0.7,10.8,1.1c2.7,1.7,3.4,5,1.9,9.9c-2.1,6.1-5.2,11.8-9.3,16.8c-4.5,5.8-9.6,9.4-15.3,10.8
	c-1.6,0.2-2.8,1.4-3,3c-0.8,2.5-1.4,5-1.9,7.6c-0.7,3.2-1.2,6.5-1.5,9.7c-0.3,2.7-0.2,5.5,0.2,8.2c0.4,2.3,1.5,3.4,3.2,3.4
	c7.8-3.7,15.3-11.1,22.7-22c7.7-11.5,14.5-23.5,20.5-35.9c0.8-0.3,1.6-0.5,2.4-0.6C959.5,129.5,960.3,129.7,961,130.3z M916.1,149.7
	c0,0.3,0.3,0.4,0.9,0.4c0.3,0,0.9-0.4,2-1.3c1.2-1.1,2.2-2.3,3-3.7c1.1-1.8,2.1-3.8,2.8-5.8c0.9-2.3,1.2-4.9,0.9-7.4
	c-1.7,2.6-3.4,5.3-5,8.2c-1.6,2.9-3,5.9-4.1,9.1L916.1,149.7z"/>
<path class="st0" d="M1013.7,108.7c4,2.3,5.4,6.7,4.1,13.2c-1.6,7.4-3.7,14.7-6.3,21.8c-2.9,8.1-5.7,16.3-8.4,24.6
	c-2.7,8.4-3.5,15.4-2.4,21.2c0.6,2.6,0.3,4.5-0.9,5.8c-1.1,1.3-2.7,2-4.3,1.9c-1.9-0.1-3.7-0.7-5.2-1.9c-1.8-1.5-3.1-3.5-3.5-5.8
	c-0.9-4.6-0.1-10.9,2.2-19c2.3-8.1,4.9-16.1,7.8-24.2c2.9-8.1,5.2-15.3,7.1-21.6c1.9-6.3,1.8-10.1-0.2-11.2
	c-2.8,1.6-5.4,3.6-7.8,5.8c-3.9,3.5-7.6,7.2-11,11.2c-4.1,4.8-7.9,9.9-11.2,15.3c-3.5,5.5-6.3,11.5-8.4,17.7
	c-1.4,3.3-2.5,6.8-3.2,10.4c-0.6,3-1.5,6-2.8,8.9c-0.9,2.2-2.6,4-4.8,5c-2,0.9-4.9,0.1-8.6-2.2c-2.3-1.4-3.3-4.4-3-8.9
	c0.5-5.5,1.5-10.9,3-16.2c1.7-6.3,3.9-13.2,6.5-20.7c2.6-7.5,5.2-15,7.8-22.5c1.7-4.9,3.8-7.6,6.3-8.2c2.4-0.6,6.3-0.3,11.5,0.9
	c1.7,0,2.7,0.8,2.8,2.4c0.1,1.9,0,3.8-0.4,5.6c-0.5,2.3-1.2,4.7-2,6.9c-0.9,2.4-1.6,4.7-2.2,6.7c2.6-3.5,5.4-6.8,8.4-10.2
	c2.8-3.1,5.9-6,9.3-8.6c2.9-2.3,6.3-4,9.9-5C1007,107,1010.6,107.3,1013.7,108.7z"/>
<rect x="-14" y="-173" style="fill:none;" width="1042" height="137"/>
<text transform="matrix(1 0 0 1 -14 -118.019)" style="font-family:'Restless-Regular'; font-size:72px;">Bethany Thielen</text>
</svg>
