<svg id="Layer_1" data-name="Layer 1" xmlns="http://www.w3.org/2000/svg" xmlns:xlink="http://www.w3.org/1999/xlink" viewBox="0 0 612 792"><defs><style>.cls-1{fill:url(#linear-gradient);}.cls-2{font-size:45px;}.cls-12,.cls-2,.cls-38,.cls-69,.cls-70,.cls-8{fill:#fff;}.cls-12,.cls-14,.cls-2,.cls-25,.cls-70,.cls-8{font-family:Roboto-Light, Roboto;}.cls-3{letter-spacing:0.01em;}.cls-4{letter-spacing:0.01em;}.cls-5{letter-spacing:-0.01em;}.cls-6,.cls-7{font-family:Roboto-Black, Roboto;}.cls-21,.cls-6{letter-spacing:-0.03em;}.cls-12,.cls-14,.cls-51,.cls-8{font-size:11px;}.cls-8{text-decoration:underline;}.cls-9{letter-spacing:-0.06em;}.cls-10,.cls-66{letter-spacing:-0.01em;}.cls-11{letter-spacing:-0.05em;}.cls-13{font-size:20px;}.cls-13,.cls-24,.cls-33,.cls-51,.cls-65,.cls-66,.cls-67{font-family:Roboto-Regular, Roboto;}.cls-15{letter-spacing:-0.01em;}.cls-16{font-size:12px;}.cls-16,.cls-35{font-family:Roboto-Medium, Roboto;}.cls-17{letter-spacing:-0.04em;}.cls-18{letter-spacing:0.01em;}.cls-19{letter-spacing:-0.01em;}.cls-20{letter-spacing:-0.03em;}.cls-22{letter-spacing:-0.02em;}.cls-23,.cls-54,.cls-71{fill:none;}.cls-23{stroke:#bd39bf;}.cls-23,.cls-38,.cls-54,.cls-69,.cls-71{stroke-miterlimit:10;}.cls-24,.cls-25{font-size:10.83px;}.cls-26{letter-spacing:-0.01em;}.cls-27{letter-spacing:0em;}.cls-28{letter-spacing:-0.01em;}.cls-29{letter-spacing:0em;}.cls-30{letter-spacing:-0.01em;}.cls-31{letter-spacing:-0.02em;}.cls-32{letter-spacing:-0.05em;}.cls-33{font-size:19.69px;}.cls-34{letter-spacing:-0.06em;}.cls-35{font-size:11.81px;}.cls-36{letter-spacing:-0.01em;}.cls-37{letter-spacing:-0.03em;}.cls-38,.cls-54{stroke:#727272;}.cls-39{fill:#515151;}.cls-40{letter-spacing:-0.01em;}.cls-41{letter-spacing:-0.01em;}.cls-42{letter-spacing:-0.01em;}.cls-43,.cls-67{letter-spacing:0.02em;}.cls-44{letter-spacing:-0.01em;}.cls-45{letter-spacing:0em;}.cls-46{letter-spacing:0em;}.cls-47{letter-spacing:-0.02em;}.cls-48{letter-spacing:-0.01em;}.cls-49{letter-spacing:-0.01em;}.cls-50{letter-spacing:-0.01em;}.cls-52{letter-spacing:-0.03em;}.cls-53{letter-spacing:-0.01em;}.cls-55{letter-spacing:-0.01em;}.cls-56{letter-spacing:-0.05em;}.cls-57{letter-spacing:-0.02em;}.cls-58{letter-spacing:-0.11em;}.cls-59{letter-spacing:-0.01em;}.cls-60{letter-spacing:-0.01em;}.cls-61{letter-spacing:-0.02em;}.cls-62{letter-spacing:-0.03em;}.cls-63{letter-spacing:-0.06em;}.cls-64{letter-spacing:-0.01em;}.cls-68{letter-spacing:0.01em;}.cls-69{stroke:#000;opacity:0.52;}.cls-70{font-size:4px;}.cls-71{stroke:#3f3f3f;}</style><linearGradient id="linear-gradient" x1="-0.69" y1="51.92" x2="687.59" y2="51.92" gradientUnits="userSpaceOnUse"><stop offset="0" stop-color="#527587"/><stop offset="1" stop-color="#bd39bf"/></linearGradient></defs><title>bethanythielenresume2018</title><rect class="cls-1" width="612" height="103.85"/><text class="cls-2" transform="translate(21.57 68.8)">B<tspan class="cls-3" x="27.58" y="0">E</tspan><tspan x="53.61" y="0">T</tspan><tspan class="cls-4" x="80.49" y="0">H</tspan><tspan x="112.72" y="0">A</tspan><tspan class="cls-5" x="140.82" y="0">N</tspan><tspan x="172.16" y="0">Y</tspan><tspan class="cls-6" x="199.09" y="0"> </tspan><tspan class="cls-7" x="208.98" y="0">THIELEN</tspan></text><text class="cls-8" transform="translate(447.8 29.78)">ww<tspan class="cls-9" x="16.59" y="0">w</tspan><tspan x="24.21" y="0">.designed</tspan><tspan class="cls-10" x="70.61" y="0">b</tspan><tspan x="76.65" y="0">ybethan</tspan><tspan class="cls-11" x="115.16" y="0">y</tspan><tspan x="119.81" y="0">.com</tspan></text><text class="cls-12" transform="translate(447.8 83.33)">bethan<tspan class="cls-11" x="33.28" y="0">y</tspan><tspan x="37.94" y="0">.thielen@gmail.com</tspan></text><text class="cls-12" transform="translate(447.8 56.56)">(480)-246-6960</text><text class="cls-13" transform="translate(187.24 141.06)">PROFESSIO<tspan class="cls-4" x="104.02" y="0">N</tspan><tspan x="118.46" y="0">AL EXPERIENCE:</tspan></text><text class="cls-13" transform="translate(79.72 141.06)">SKILLS:</text><text class="cls-14" transform="translate(115.19 198.59)">S<tspan class="cls-15" x="6.52" y="0">k</tspan><tspan x="11.79" y="0">etch</tspan></text><text class="cls-14" transform="translate(115.19 198.59)">S<tspan class="cls-15" x="6.52" y="0">k</tspan><tspan x="11.79" y="0">etch</tspan></text><text class="cls-14" transform="translate(55.88 221.83)">Balsamiq Mockups</text><text class="cls-14" transform="translate(106.77 245.08)">InVision </text><text class="cls-16" transform="translate(67.62 178.65)">PR<tspan class="cls-17" x="15.16" y="0">O</tspan><tspan class="cls-5" x="22.95" y="0">T</tspan><tspan class="cls-17" x="30.06" y="0">O</tspan><tspan class="cls-18" x="37.85" y="0">T</tspan><tspan x="45.23" y="0">YPING</tspan></text><text class="cls-14" transform="translate(67.41 449.86)">Google Analytics</text><text class="cls-14" transform="translate(52.1 473.71)"><tspan class="cls-19">H</tspan><tspan x="7.63" y="0">TML / CSS / SCSS</tspan></text><text class="cls-14" transform="translate(114.46 497.56)">GitHub</text><text class="cls-16" transform="translate(36.18 429.31)">WEB DEVE<tspan class="cls-20" x="57.08" y="0">L</tspan><tspan x="63.19" y="0">OPME</tspan><tspan class="cls-19" x="96.44" y="0">N</tspan><tspan class="cls-21" x="104.79" y="0">T</tspan></text><text class="cls-14" transform="translate(61.89 311.39)">Adobe Pho<tspan class="cls-15" x="52.57" y="0">t</tspan><tspan x="55.99" y="0">oshop</tspan></text><text class="cls-14" transform="translate(68.64 335.87)">Adobe Illust<tspan class="cls-22" x="56.6" y="0">r</tspan><tspan x="60.09" y="0">a</tspan><tspan class="cls-15" x="65.98" y="0">t</tspan><tspan x="69.41" y="0">or</tspan></text><text class="cls-14" transform="translate(72.27 360.35)">Adobe InDesign</text><text class="cls-14" transform="translate(20.29 384.83)">Adobe Cha<tspan class="cls-22" x="52.67" y="0">r</tspan><tspan x="56.15" y="0">acter Anima</tspan><tspan class="cls-15" x="114.32" y="0">t</tspan><tspan x="117.75" y="0">or</tspan></text><text class="cls-16" transform="translate(105.96 289.56)">DESIGN</text><line class="cls-23" x1="173.33" y1="103.85" x2="173.33" y2="792"/><text class="cls-24" transform="translate(88.78 721.23) scale(1.03 1)">2014 - 2018</text><text class="cls-25" transform="translate(26.73 678.92) scale(1.03 1)">Ari<tspan class="cls-26" x="12.83" y="0">z</tspan><tspan class="cls-27" x="18.02" y="0">ona State Uni</tspan><tspan class="cls-28" x="81.36" y="0">v</tspan><tspan class="cls-29" x="86.5" y="0">ersity |</tspan></text><text class="cls-25" transform="translate(13.69 696.55) scale(1.03 1)">Bar<tspan class="cls-30" x="16.08" y="0">r</tspan><tspan class="cls-29" x="19.62" y="0">ett,</tspan><tspan class="cls-31" x="34.25" y="0"> </tspan><tspan class="cls-27" x="36.67" y="0">The Honors College</tspan></text><text class="cls-24" transform="translate(12.51 642.88) scale(1.03 1)"><tspan class="cls-32">T</tspan><tspan x="5.94" y="0">echnical Communication - </tspan><tspan x="53.67" y="13">User Experience </tspan></text><text class="cls-33" transform="translate(33.47 583.11) scale(1.03 1)">EDUC<tspan class="cls-34" x="49.69" y="0">A</tspan><tspan x="61.29" y="0">TION:</tspan></text><text class="cls-35" transform="translate(16.02 621.99) scale(1.03 1)">B<tspan class="cls-36" x="7.45" y="0">A</tspan><tspan x="15.2" y="0">CHE</tspan><tspan class="cls-37" x="37.98" y="0">L</tspan><tspan x="44" y="0">OR OF SCIENCE</tspan></text><line class="cls-38" x1="172.91" y1="540.96" x2="-2.71" y2="540.96"/><text class="cls-16" transform="translate(187.96 177.29)">PRODU<tspan class="cls-19" x="39.11" y="0">C</tspan><tspan class="cls-21" x="46.77" y="0">T</tspan><tspan x="53.7" y="0" xml:space="preserve"> DESIGN I</tspan><tspan class="cls-19" x="105.01" y="0">N</tspan><tspan x="113.36" y="0">TERN</tspan></text><circle class="cls-39" cx="189.67" cy="221.25" r="2.52"/><circle class="cls-39" cx="189.67" cy="252.34" r="2.52"/><circle class="cls-39" cx="189.63" cy="283.58" r="2.52"/><g id="_Group_" data-name="&lt;Group&gt;"><text class="cls-14" transform="translate(201.68 225.72)">P<tspan class="cls-15" x="6.77" y="0">r</tspan><tspan x="10.37" y="0">oduced </tspan><tspan class="cls-15" x="48.82" y="0">k</tspan><tspan class="cls-40" x="54.1" y="0">e</tspan><tspan x="59.71" y="0">y designs and b</tspan><tspan class="cls-22" x="134.65" y="0">r</tspan><tspan x="138.13" y="0">anding, p</tspan><tspan class="cls-15" x="181.67" y="0">r</tspan><tspan x="185.26" y="0">og</tspan><tspan class="cls-41" x="197.52" y="0">r</tspan><tspan x="201.12" y="0">essing p</tspan><tspan class="cls-15" x="241.33" y="0">r</tspan><tspan x="244.92" y="0">oduct f</tspan><tspan class="cls-15" x="278.75" y="0">r</tspan><tspan x="282.35" y="0">om internal asset </tspan><tspan class="cls-15" x="368.35" y="0">t</tspan><tspan x="371.78" y="0">o </tspan><tspan x="0" y="13">client of</tspan><tspan class="cls-42" x="38.33" y="13">f</tspan><tspan x="41.85" y="13">ering that earned $100,000 in 1st qua</tspan><tspan class="cls-43" x="220.55" y="13">r</tspan><tspan x="224.52" y="13">ter</tspan><tspan x="0" y="31">Owned UX li</tspan><tspan class="cls-42" x="57.81" y="31">f</tspan><tspan x="61.33" y="31">ec</tspan><tspan class="cls-40" x="72.68" y="31">y</tspan><tspan x="77.83" y="31">cle of 5 critical </tspan><tspan class="cls-44" x="150.1" y="31">f</tspan><tspan class="cls-45" x="153.61" y="31">eatu</tspan><tspan class="cls-41" x="174.76" y="31">r</tspan><tspan x="178.36" y="31">es, f</tspan><tspan class="cls-15" x="198.04" y="31">r</tspan><tspan x="201.63" y="31">om initial concept </tspan><tspan class="cls-15" x="289.74" y="31">t</tspan><tspan x="293.17" y="31">o </tspan><tspan class="cls-41" x="302.01" y="31">r</tspan><tspan class="cls-46" x="305.6" y="31">eleased p</tspan><tspan class="cls-15" x="351.46" y="31">r</tspan><tspan x="355.06" y="31">oduct </tspan><tspan x="0" y="44">used </tspan><tspan class="cls-10" x="26.08" y="44">b</tspan><tspan x="32.12" y="44">y 8000+ EY cont</tspan><tspan class="cls-47" x="110.21" y="44">r</tspan><tspan x="113.69" y="44">ac</tspan><tspan class="cls-48" x="125.25" y="44">t</tspan><tspan class="cls-45" x="128.68" y="44">ors</tspan><tspan class="cls-10" x="0" y="62">P</tspan><tspan x="6.71" y="62">a</tspan><tspan class="cls-43" x="12.61" y="62">r</tspan><tspan x="16.58" y="62">tne</tspan><tspan class="cls-49" x="31.83" y="62">r</tspan><tspan x="35.43" y="62">ed with p</tspan><tspan class="cls-15" x="79" y="62">r</tspan><tspan x="82.6" y="62">oduct managers </tspan><tspan class="cls-15" x="164.09" y="62">t</tspan><tspan x="167.52" y="62">o define p</tspan><tspan class="cls-15" x="214.75" y="62">r</tspan><tspan x="218.35" y="62">oduct st</tspan><tspan class="cls-22" x="257.64" y="62">r</tspan><tspan x="261.12" y="62">ategy and with engineers </tspan><tspan class="cls-15" x="383.61" y="62">t</tspan><tspan x="387.03" y="62">o </tspan><tspan x="0" y="75">d</tspan><tspan class="cls-40" x="6.11" y="75">ev</tspan><tspan x="16.95" y="75">elop and launch p</tspan><tspan class="cls-15" x="101.66" y="75">r</tspan><tspan x="105.26" y="75">oduct </tspan><tspan class="cls-42" x="135.45" y="75">f</tspan><tspan x="138.96" y="75">eatu</tspan><tspan class="cls-50" x="160.11" y="75">r</tspan><tspan class="cls-45" x="163.71" y="75">es, within Agile envi</tspan><tspan class="cls-15" x="257" y="75">r</tspan><tspan x="260.59" y="75">onment</tspan></text></g><text class="cls-51" transform="translate(187.96 193)">Ernst &amp; <tspan class="cls-52" x="37.59" y="0">Y</tspan><tspan x="43.85" y="0">oung | </tspan><tspan class="cls-53" x="76.55" y="0">P</tspan><tspan x="83.43" y="0">alo Al</tspan><tspan class="cls-15" x="110.93" y="0">t</tspan><tspan x="114.42" y="0">o, CA</tspan></text><text class="cls-51" transform="translate(499.33 193)">June 2018 - P<tspan class="cls-49" x="66.88" y="0">r</tspan><tspan x="70.5" y="0">esent</tspan></text><line class="cls-54" x1="173.33" y1="202.23" x2="595.93" y2="202.23"/><circle class="cls-38" cx="173.27" cy="202.28" r="6.51"/><circle class="cls-39" cx="189.67" cy="475.46" r="2.52"/><g id="_Group_2" data-name="&lt;Group&gt;"><text class="cls-14" transform="translate(202.37 386.01)">Mapped and optimi<tspan class="cls-55" x="93.26" y="0">z</tspan><tspan x="98.53" y="0">ed user flow of a global leade</tspan><tspan class="cls-18" x="238.64" y="0">r</tspan><tspan class="cls-56" x="242.42" y="0">’</tspan><tspan x="243.78" y="0">s c</tspan><tspan class="cls-15" x="257.69" y="0">r</tspan><tspan x="261.28" y="0">owdsou</tspan><tspan class="cls-41" x="299.62" y="0">r</tspan><tspan x="303.22" y="0">cing p</tspan><tspan class="cls-15" x="332.27" y="0">r</tspan><tspan x="335.86" y="0">oduct, used </tspan><tspan class="cls-10" x="0" y="13">b</tspan><tspan x="6.04" y="13">y companies including Boeing,</tspan><tspan class="cls-57" x="151.32" y="13"> </tspan><tspan class="cls-58" x="153.78" y="13">T</tspan><tspan class="cls-46" x="159.1" y="13">-Mobile and the NFL</tspan><tspan x="0" y="31">Coded website for Hollywood client that gene</tspan><tspan class="cls-22" x="217.27" y="31">r</tspan><tspan x="220.76" y="31">ated $260,000+ in </tspan><tspan class="cls-41" x="309.5" y="31">r</tspan><tspan class="cls-59" x="313.1" y="31">ev</tspan><tspan class="cls-45" x="323.93" y="31">enue, using </tspan><tspan class="cls-19" x="0" y="44">H</tspan><tspan x="7.63" y="44">TML5 and CSS3 with Bootst</tspan><tspan class="cls-57" x="142.65" y="44">r</tspan><tspan x="146.13" y="44">ap 4</tspan><tspan x="0" y="62">Designed UX a</tspan><tspan class="cls-49" x="70.06" y="62">r</tspan><tspan x="73.66" y="62">chitectu</tspan><tspan class="cls-50" x="112.29" y="62">r</tspan><tspan x="115.89" y="62">e/logic of 2 inte</tspan><tspan class="cls-22" x="190.44" y="62">r</tspan><tspan x="193.93" y="62">acti</tspan><tspan class="cls-60" x="211.49" y="62">v</tspan><tspan class="cls-46" x="216.71" y="62">e chatbots, d</tspan><tspan class="cls-59" x="278.45" y="62">ev</tspan><tspan class="cls-45" x="289.28" y="62">eloped acco</tspan><tspan class="cls-41" x="347.54" y="62">r</tspan><tspan x="351.14" y="62">ding </tspan><tspan class="cls-15" x="374.53" y="62">t</tspan><tspan x="377.96" y="62">o </tspan><tspan class="cls-49" x="0" y="75">r</tspan><tspan x="3.6" y="75">esea</tspan><tspan class="cls-49" x="26.43" y="75">r</tspan><tspan x="30.02" y="75">ch on ta</tspan><tspan class="cls-49" x="68.71" y="75">r</tspan><tspan x="72.31" y="75">get audience</tspan><tspan class="cls-61" x="0" y="93">W</tspan><tspan x="9.69" y="93">o</tspan><tspan class="cls-49" x="15.86" y="93">r</tspan><tspan x="19.45" y="93">e many hats in agency sta</tspan><tspan class="cls-43" x="144.57" y="93">r</tspan><tspan x="148.54" y="93">tup, prioritizing tasks </tspan><tspan class="cls-15" x="250.84" y="93">t</tspan><tspan x="254.27" y="93">o deli</tspan><tspan class="cls-59" x="279.83" y="93">v</tspan><tspan class="cls-45" x="285.05" y="93">er consistent </tspan><tspan class="cls-41" x="350.05" y="93">r</tspan><tspan x="353.65" y="93">esults</tspan></text></g><circle class="cls-39" cx="189.67" cy="382.43" r="2.52"/><circle class="cls-39" cx="189.67" cy="412.79" r="2.52"/><circle class="cls-39" cx="189.67" cy="444.28" r="2.52"/><text class="cls-16" transform="translate(188.12 337.59)">UX/UI DESIGNER I<tspan class="cls-19" x="96.95" y="0">N</tspan><tspan x="105.3" y="0">TERN</tspan></text><text class="cls-51" transform="translate(188.12 353.3)">SCI C<tspan class="cls-49" x="26.56" y="0">r</tspan><tspan x="30.18" y="0">eations L</tspan><tspan class="cls-62" x="74.91" y="0">L</tspan><tspan x="80.48" y="0">C | Chandle</tspan><tspan class="cls-63" x="135.74" y="0">r</tspan><tspan class="cls-46" x="138.8" y="0">, AZ</tspan></text><text class="cls-51" transform="translate(456.73 353.3)"><tspan xml:space="preserve"> December 2017 - June 2018</tspan></text><line class="cls-38" x1="173.49" y1="362.53" x2="596.09" y2="362.53"/><circle class="cls-38" cx="173.49" cy="362.79" r="6.51"/><text class="cls-14" transform="translate(201.83 691.03)">O<tspan class="cls-40" x="7.44" y="0">v</tspan><tspan x="12.67" y="0">erhauled digital lib</tspan><tspan class="cls-22" x="99.69" y="0">r</tspan><tspan x="103.18" y="0">a</tspan><tspan class="cls-4" x="109.07" y="0">r</tspan><tspan class="cls-11" x="112.87" y="0">y</tspan><tspan x="117.52" y="0">, coo</tspan><tspan class="cls-49" x="140.29" y="0">r</tspan><tspan x="143.89" y="0">dinating all UX/UI effo</tspan><tspan class="cls-43" x="249" y="0">r</tspan><tspan x="252.97" y="0">ts </tspan><tspan class="cls-15" x="264.75" y="0">t</tspan><tspan x="268.17" y="0">o successfully </tspan><tspan class="cls-49" x="339.29" y="0">r</tspan><tspan class="cls-40" x="342.89" y="0">e</tspan><tspan class="cls-64" x="348.5" y="0">v</tspan><tspan x="353.71" y="0">amp </tspan><tspan x="0" y="13">usability of p</tspan><tspan class="cls-15" x="61" y="13">r</tspan><tspan x="64.6" y="13">oduct used </tspan><tspan class="cls-10" x="120.87" y="13">b</tspan><tspan x="126.91" y="13">y 3000+ schoolchild</tspan><tspan class="cls-49" x="222.88" y="13">r</tspan><tspan x="226.48" y="13">en</tspan><tspan x="0" y="31">Simplified web and mobile site user flo</tspan><tspan class="cls-9" x="184.96" y="31">w</tspan><tspan x="192.59" y="31">, imp</tspan><tspan class="cls-15" x="215.68" y="31">r</tspan><tspan class="cls-64" x="219.27" y="31">o</tspan><tspan x="225.35" y="31">ving usability </tspan><tspan class="cls-10" x="290.36" y="31">b</tspan><tspan x="296.39" y="31">y 300% for ta</tspan><tspan class="cls-49" x="358.99" y="31">r</tspan><tspan x="362.59" y="31">get </tspan><tspan x="0" y="44">audience of users with low technical lite</tspan><tspan class="cls-22" x="190.85" y="44">r</tspan><tspan x="194.34" y="44">acy</tspan><tspan x="0" y="62">Wi</tspan><tspan class="cls-49" x="12.33" y="62">r</tspan><tspan x="15.93" y="62">ef</tspan><tspan class="cls-22" x="25.25" y="62">r</tspan><tspan x="28.74" y="62">amed low-</tspan><tspan class="cls-49" x="78.91" y="62">r</tspan><tspan x="82.51" y="62">es site l</tspan><tspan class="cls-64" x="118.83" y="62">ay</tspan><tspan x="129.79" y="62">out in acco</tspan><tspan class="cls-49" x="182.77" y="62">r</tspan><tspan x="186.37" y="62">dance with user </tspan><tspan class="cls-49" x="265.11" y="62">r</tspan><tspan x="268.71" y="62">esea</tspan><tspan class="cls-49" x="291.54" y="62">r</tspan><tspan x="295.14" y="62">ch findings</tspan><tspan x="0" y="80">P</tspan><tspan class="cls-15" x="6.77" y="80">r</tspan><tspan x="10.37" y="80">o</tspan><tspan class="cls-15" x="16.53" y="80">t</tspan><tspan x="19.95" y="80">otyped high-</tspan><tspan class="cls-49" x="79.23" y="80">r</tspan><tspan x="82.83" y="80">es, inte</tspan><tspan class="cls-22" x="116.58" y="80">r</tspan><tspan x="120.07" y="80">acti</tspan><tspan class="cls-40" x="137.63" y="80">v</tspan><tspan x="142.85" y="80">e mockups for </tspan><tspan class="cls-49" x="214.73" y="80">r</tspan><tspan x="218.33" y="80">esponsi</tspan><tspan class="cls-40" x="255.92" y="80">v</tspan><tspan x="261.14" y="80">e web pages</tspan></text><text class="cls-14" transform="translate(201.83 691.03)">O<tspan class="cls-40" x="7.44" y="0">v</tspan><tspan x="12.67" y="0">erhauled digital lib</tspan><tspan class="cls-22" x="99.69" y="0">r</tspan><tspan x="103.18" y="0">a</tspan><tspan class="cls-4" x="109.07" y="0">r</tspan><tspan class="cls-11" x="112.87" y="0">y</tspan><tspan x="117.52" y="0">, coo</tspan><tspan class="cls-49" x="140.29" y="0">r</tspan><tspan x="143.89" y="0">dinating all UX/UI effo</tspan><tspan class="cls-43" x="249" y="0">r</tspan><tspan x="252.97" y="0">ts </tspan><tspan class="cls-15" x="264.75" y="0">t</tspan><tspan x="268.17" y="0">o successfully </tspan><tspan class="cls-49" x="339.29" y="0">r</tspan><tspan class="cls-40" x="342.89" y="0">e</tspan><tspan class="cls-64" x="348.5" y="0">v</tspan><tspan x="353.71" y="0">amp </tspan><tspan x="0" y="13">usability of p</tspan><tspan class="cls-15" x="61" y="13">r</tspan><tspan x="64.6" y="13">oduct used </tspan><tspan class="cls-10" x="120.87" y="13">b</tspan><tspan x="126.91" y="13">y 3000+ schoolchild</tspan><tspan class="cls-49" x="222.88" y="13">r</tspan><tspan x="226.48" y="13">en</tspan><tspan x="0" y="31">Simplified web and mobile site user flo</tspan><tspan class="cls-9" x="184.96" y="31">w</tspan><tspan x="192.59" y="31">, imp</tspan><tspan class="cls-15" x="215.68" y="31">r</tspan><tspan class="cls-64" x="219.27" y="31">o</tspan><tspan x="225.35" y="31">ving usability </tspan><tspan class="cls-10" x="290.36" y="31">b</tspan><tspan x="296.39" y="31">y 300% for ta</tspan><tspan class="cls-49" x="358.99" y="31">r</tspan><tspan x="362.59" y="31">get </tspan><tspan x="0" y="44">audience of users with low technical lite</tspan><tspan class="cls-22" x="190.85" y="44">r</tspan><tspan x="194.34" y="44">acy</tspan><tspan x="0" y="62">Wi</tspan><tspan class="cls-49" x="12.33" y="62">r</tspan><tspan x="15.93" y="62">ef</tspan><tspan class="cls-22" x="25.25" y="62">r</tspan><tspan x="28.74" y="62">amed low-</tspan><tspan class="cls-49" x="78.91" y="62">r</tspan><tspan x="82.51" y="62">es site l</tspan><tspan class="cls-64" x="118.83" y="62">ay</tspan><tspan x="129.79" y="62">out in acco</tspan><tspan class="cls-49" x="182.77" y="62">r</tspan><tspan x="186.37" y="62">dance with user </tspan><tspan class="cls-49" x="265.11" y="62">r</tspan><tspan x="268.71" y="62">esea</tspan><tspan class="cls-49" x="291.54" y="62">r</tspan><tspan x="295.14" y="62">ch findings</tspan><tspan x="0" y="80">P</tspan><tspan class="cls-15" x="6.77" y="80">r</tspan><tspan x="10.37" y="80">o</tspan><tspan class="cls-15" x="16.53" y="80">t</tspan><tspan x="19.95" y="80">otyped high-</tspan><tspan class="cls-49" x="79.23" y="80">r</tspan><tspan x="82.83" y="80">es, inte</tspan><tspan class="cls-22" x="116.58" y="80">r</tspan><tspan x="120.07" y="80">acti</tspan><tspan class="cls-40" x="137.63" y="80">v</tspan><tspan x="142.85" y="80">e mockups for </tspan><tspan class="cls-49" x="214.73" y="80">r</tspan><tspan x="218.33" y="80">esponsi</tspan><tspan class="cls-40" x="255.92" y="80">v</tspan><tspan x="261.14" y="80">e web pages</tspan></text><circle class="cls-39" cx="189.13" cy="687.37" r="2.52"/><circle class="cls-39" cx="189.13" cy="717.78" r="2.52"/><circle class="cls-39" cx="189.13" cy="749.1" r="2.52"/><circle class="cls-39" cx="189.13" cy="767.7" r="2.52"/><text class="cls-16" transform="translate(187.58 643.23)">PRODU<tspan class="cls-19" x="39.11" y="0">C</tspan><tspan class="cls-21" x="46.77" y="0">T</tspan><tspan x="53.7" y="0" xml:space="preserve"> DESIGNER </tspan><tspan class="cls-65" x="115.89" y="0">(</tspan><tspan class="cls-66" x="119.99" y="0">P</tspan><tspan class="cls-65" x="127.5" y="0">a</tspan><tspan class="cls-67" x="134.03" y="0">r</tspan><tspan class="cls-65" x="138.38" y="0">t-Time)</tspan></text><text class="cls-51" transform="translate(187.58 658.94)">SolarSPELL Nonp<tspan class="cls-15" x="85.81" y="0">r</tspan><tspan x="89.42" y="0">ofit | Mesa, AZ</tspan></text><text class="cls-51" transform="translate(471.34 658.94)">Janua<tspan class="cls-4" x="30.17" y="0">r</tspan><tspan x="33.99" y="0">y 2017 - April 2018</tspan></text><line class="cls-38" x1="172.96" y1="667.17" x2="595.56" y2="667.17"/><circle class="cls-38" cx="172.96" cy="667.17" r="6.51"/><text class="cls-51" transform="translate(467.39 531.36)">Ma<tspan class="cls-49" x="15.59" y="0">r</tspan><tspan x="19.21" y="0">ch 2017 - </tspan><tspan class="cls-10" x="66.93" y="0">A</tspan><tspan x="74.05" y="0">ugust 2017</tspan></text><circle class="cls-39" cx="189.29" cy="563.49" r="2.52"/><circle class="cls-39" cx="189.29" cy="594.74" r="2.52"/><g id="_Group_3" data-name="&lt;Group&gt;"><text class="cls-14" transform="translate(201.68 567.18)">Wi<tspan class="cls-49" x="12.33" y="0">r</tspan><tspan x="15.93" y="0">ef</tspan><tspan class="cls-22" x="25.25" y="0">r</tspan><tspan x="28.74" y="0">amed inte</tspan><tspan class="cls-22" x="76.57" y="0">r</tspan><tspan x="80.06" y="0">acti</tspan><tspan class="cls-40" x="97.61" y="0">v</tspan><tspan x="102.83" y="0">e Uhaul.com truck </tspan><tspan class="cls-49" x="192.74" y="0">r</tspan><tspan x="196.34" y="0">ese</tspan><tspan class="cls-4" x="213.28" y="0">r</tspan><tspan class="cls-64" x="217.07" y="0">v</tspan><tspan x="222.28" y="0">ation path, d</tspan><tspan class="cls-59" x="281.51" y="0">ev</tspan><tspan x="292.34" y="0">eloping user-specific </tspan><tspan x="0" y="13">p</tspan><tspan class="cls-15" x="6.1" y="13">r</tspan><tspan x="9.69" y="13">oduct </tspan><tspan class="cls-49" x="39.88" y="13">r</tspan><tspan x="43.48" y="13">ecommendation function </tspan><tspan x="0" y="31">P</tspan><tspan class="cls-15" x="6.77" y="31">r</tspan><tspan x="10.37" y="31">o</tspan><tspan class="cls-15" x="16.53" y="31">t</tspan><tspan x="19.95" y="31">otyped user inte</tspan><tspan class="cls-68" x="96.84" y="31">r</tspan><tspan x="100.62" y="31">face of 15-page </tspan><tspan class="cls-49" x="178.44" y="31">r</tspan><tspan x="182.04" y="31">ese</tspan><tspan class="cls-4" x="198.97" y="31">r</tspan><tspan class="cls-64" x="202.77" y="31">v</tspan><tspan x="207.98" y="31">ation p</tspan><tspan class="cls-15" x="240.85" y="31">r</tspan><tspan x="244.44" y="31">ocess, following U-Haul style </tspan><tspan x="0" y="44">guide </tspan></text></g><text class="cls-16" transform="translate(188.68 516.05)">UX/UI I<tspan class="cls-19" x="37.75" y="0">N</tspan><tspan x="46.1" y="0">TERN</tspan></text><text class="cls-51" transform="translate(188.68 531.36)">U-Haul International | Phoenix, AZ</text><line class="cls-38" x1="173.55" y1="540.99" x2="596.41" y2="540.99"/><circle class="cls-38" cx="172.96" cy="540.99" r="6.51"/><line class="cls-69" x1="430.83" x2="430.83" y2="103.85"/><text class="cls-70" transform="translate(3.98 507.33)">Ha<tspan class="cls-49" x="4.97" y="0">r</tspan><tspan x="6.28" y="0">d skills: visual design, p</tspan><tspan class="cls-15" x="46.63" y="0">r</tspan><tspan x="47.93" y="0">oduct </tspan><tspan class="cls-15" x="58.91" y="0">r</tspan><tspan x="60.22" y="0">oadmaps, mobile app, design concepts, wi</tspan><tspan class="cls-49" x="134.04" y="0">r</tspan><tspan x="135.35" y="0">ef</tspan><tspan class="cls-22" x="138.74" y="0">r</tspan><tspan x="140.01" y="0">ames , use </tspan><tspan x="0" y="4">cases, user painpoints, inte</tspan><tspan class="cls-22" x="47.16" y="4">r</tspan><tspan x="48.43" y="4">action design, p</tspan><tspan class="cls-15" x="75.81" y="4">r</tspan><tspan x="77.12" y="4" xml:space="preserve">ocess flows,  g</tspan><tspan class="cls-22" x="102.94" y="4">r</tspan><tspan x="104.21" y="4" xml:space="preserve">aphic design, web design,  </tspan><tspan x="0" y="8">s</tspan><tspan class="cls-15" x="2.03" y="8">t</tspan><tspan x="3.27" y="8">o</tspan><tspan class="cls-4" x="5.51" y="8">r</tspan><tspan x="6.89" y="8">ytelling, ideation, digital mar</tspan><tspan class="cls-15" x="55.24" y="8">k</tspan><tspan x="57.16" y="8">eting, landing pages, design </tspan><tspan class="cls-15" x="106.31" y="8">t</tspan><tspan x="107.56" y="8">ools, adobe c</tspan><tspan class="cls-49" x="130.62" y="8">r</tspan><tspan x="131.93" y="8">eati</tspan><tspan class="cls-40" x="138.32" y="8">v</tspan><tspan x="140.22" y="8">e suite, </tspan><tspan x="0" y="12">visualization, c</tspan><tspan class="cls-49" x="25.48" y="12">r</tspan><tspan x="26.79" y="12">eativit</tspan><tspan class="cls-11" x="37.29" y="12">y</tspan><tspan x="38.98" y="12">, mobile platforms, user </tspan><tspan class="cls-49" x="80.92" y="12">r</tspan><tspan x="82.23" y="12">esea</tspan><tspan class="cls-49" x="90.53" y="12">r</tspan><tspan x="91.84" y="12">ch, s</tspan><tspan class="cls-15" x="99.86" y="12">t</tspan><tspan x="101.1" y="12">o</tspan><tspan class="cls-4" x="103.34" y="12">r</tspan><tspan x="104.72" y="12">yboa</tspan><tspan class="cls-49" x="113.22" y="12">r</tspan><tspan x="114.53" y="12">ding, user journ</tspan><tspan class="cls-40" x="141.31" y="12">e</tspan><tspan x="143.35" y="12">y maps</tspan><tspan x="0" y="18">Soft skills: passionate, collabo</tspan><tspan class="cls-22" x="52.37" y="18">r</tspan><tspan x="53.64" y="18">ati</tspan><tspan class="cls-40" x="57.96" y="18">v</tspan><tspan x="59.86" y="18">e, positi</tspan><tspan class="cls-40" x="73.23" y="18">v</tspan><tspan x="75.13" y="18">e attitude, </tspan><tspan class="cls-49" x="93.29" y="18">r</tspan><tspan x="94.59" y="18">espond </tspan><tspan class="cls-15" x="108.54" y="18">t</tspan><tspan x="109.78" y="18">o </tspan><tspan class="cls-42" x="112.99" y="18">f</tspan><tspan x="114.27" y="18">eedback, o</tspan><tspan class="cls-49" x="132.98" y="18">r</tspan><tspan x="134.29" y="18">gani</tspan><tspan class="cls-55" x="141.75" y="18">z</tspan><tspan x="143.66" y="18">ed, </tspan><tspan x="0" y="22">detail-oriented, moti</tspan><tspan class="cls-64" x="34.68" y="22">v</tspan><tspan x="36.57" y="22">ated, enthusiastic, inn</tspan><tspan class="cls-64" x="74.33" y="22">ov</tspan><tspan x="78.44" y="22">ati</tspan><tspan class="cls-40" x="82.76" y="22">v</tspan><tspan x="84.66" y="22">e, dri</tspan><tspan class="cls-40" x="92.93" y="22">v</tspan><tspan x="94.83" y="22">en, c</tspan><tspan class="cls-49" x="102.89" y="22">r</tspan><tspan x="104.2" y="22">eati</tspan><tspan class="cls-40" x="110.59" y="22">v</tspan><tspan x="112.49" y="22">e, ability </tspan><tspan class="cls-15" x="127.5" y="22">t</tspan><tspan x="128.75" y="22">o adapt, </tspan><tspan x="0" y="26">communication skills, </tspan></text><line class="cls-71" y1="103.85" x2="612" y2="103.85"/></svg>